<?xml version="1.0" encoding="utf-8"?>
<!-- Generator: Adobe Illustrator 22.0.1, SVG Export Plug-In . SVG Version: 6.00 Build 0)  -->
<svg version="1.1" id="Layer_1" xmlns="http://www.w3.org/2000/svg" xmlns:xlink="http://www.w3.org/1999/xlink" x="0px" y="0px"
	 viewBox="0 0 512 797" style="enable-background:new 0 0 512 797;" xml:space="preserve">
<style type="text/css">
	.st0{fill:#DED0B2;stroke:#000000;stroke-miterlimit:10;}
	.st1{fill:#D3A447;}
	.st2{fill:#958E7C;}
	.st3{fill:#5A3830;}
	.st4{fill:none;stroke:#000000;stroke-width:15;stroke-miterlimit:10;}
	.st5{fill:#958E89;}
	.st6{fill:#93312B;}
	.st7{display:none;fill:none;stroke:#000000;stroke-width:15;stroke-miterlimit:10;}
</style>
<rect class="st0" width="512" height="797"/>
<rect x="319.8" y="28.4" class="st1" width="12.3" height="587.3"/>
<polygon class="st2" points="256,119.3 292.3,151.5 292.3,536.1 256,499.8 "/>
<polygon class="st3" points="166.1,723.3 196,681.8 196,185.8 166.1,232.6 "/>
<path class="st4" d="M411.6,656.5C403,574,386,487,323,426c-18-16-40-28-65.1-27.5"/>
<path class="st4" d="M126,536.9c8.6-25.6,19.5-50.5,34.2-73.2c13.8-21.3,31.3-41.4,53.7-53.8c12.9-7.1,27.4-11.4,42.2-11.4"/>
<polygon class="st5" points="21.7,493.6 20.7,532 490.7,717.7 491.3,679.1 "/>
<polygon points="246.8,266.3 269,284.3 269,771 246.8,753.1 "/>
<polygon class="st6" points="21.7,546.8 20.7,585.3 490.7,771 491.3,732.3 "/>
<line class="st7" x1="104.7" y1="581.5" x2="104.7" y2="581.5"/>
<line class="st4" x1="410.9" y1="702.5" x2="410.9" y2="702.5"/>
</svg>
